<?xml version="1.0" encoding="utf-8"?>
<svg version="1.1" xmlns="http://www.w3.org/2000/svg" x="0px" y="0px" width="507" height="125"
	 viewBox="201 204 507 125">
	<g>
		<g>
			<path fill="#2E5234" d="M319.619,305.881c1.748-2.04,2.913-4.37,2.913-6.992s-1.165-5.245-2.913-6.992
				c-2.04-1.748-4.37-2.913-7.283-2.913c-2.622,0-4.662,1.165-6.992,2.913c-1.749,1.747-2.914,4.37-2.914,6.992
				s1.165,4.952,2.914,6.992c2.33,2.04,4.37,2.913,6.992,2.913C315.249,308.794,317.579,307.921,319.619,305.881z"/>
			<path fill="#2E5234" d="M282.329,217.608c0.29,0.874,0.29,1.747,0.29,2.33c0,5.244-2.039,9.613-5.535,13.401
				c-3.495,3.495-7.865,5.244-13.11,5.244c0.583,0.292,0.583,0.583,1.165,0.875l3.789,3.204c3.787,3.205,6.991,6.41,9.905,9.614
				c9.905,11.653,15.44,24.763,16.606,38.747c-16.023,9.323-31.465,11.361-47.196,6.992c-0.874-0.291-2.04-0.582-2.913-1.165
				c-4.079-1.457-8.157-3.495-12.527-5.827c1.165-13.983,6.409-26.802,15.731-37.582c3.495-4.37,7.575-8.448,12.527-12.236
				l2.913-2.622c-5.243,0-9.613-1.749-13.11-5.244c-3.495-3.788-5.243-8.158-5.243-13.401c0-0.583,0-1.457,0-2.622
				c-20.102,19.518-33.503,41.66-39.621,65.841c2.622-1.748,5.827-2.623,9.613-2.623c5.245,0,9.615,1.457,13.11,5.245
				c3.788,3.495,5.537,7.865,5.537,13.11c0,4.952-1.749,9.322-5.537,13.11c-1.747,2.039-4.37,3.495-6.7,4.37
				c27.968,11.361,55.645,11.07,83.612-0.292c-2.332-0.583-4.662-2.33-6.41-4.079c-3.497-3.788-5.535-8.158-5.535-13.11
				c0-5.245,2.039-9.615,5.535-13.11c3.497-3.788,8.157-5.245,13.11-5.245c4.078,0,7.283,0.875,10.196,2.914
				C316.414,259.56,303.012,237.71,282.329,217.608z"/>
			<path fill="#2E5234" d="M264.266,229.844c2.622,0,4.953-1.165,6.991-2.914c2.04-2.039,2.914-4.37,2.914-6.992
				c0-2.913-0.874-5.243-2.914-7.283c-2.038-1.748-4.37-2.913-6.991-2.913c-2.622,0-5.244,1.165-6.992,2.913
				c-2.04,2.04-2.914,4.37-2.914,7.283c0,2.622,0.874,4.953,2.914,6.992C259.022,228.679,261.644,229.844,264.266,229.844z"/>
			<path fill="#2E5234" d="M208.913,291.897c-2.04,1.747-2.913,4.37-2.913,6.992s0.874,4.952,2.913,6.992
				c1.749,2.04,4.37,2.913,6.992,2.913s4.953-0.873,6.992-2.913c2.04-2.04,2.914-4.37,2.914-6.992s-0.874-5.245-2.914-6.992
				c-2.039-1.748-4.37-2.913-6.992-2.913S210.662,290.149,208.913,291.897z"/>
		</g>
		<text transform="matrix(1 0 0 1 340 287)" fill="#2E5234" font-family="'AllerDisplay', 'Helvetica Neue', Helvetica, Arial, sans-serif" font-size="102" font-weight="bold">DYDRA</text>
	</g>
</svg>
